<svg width="608" height="224" viewBox="0 0 608 224" fill="none" xmlns="http://www.w3.org/2000/svg">
<g filter="url(#filter0_d)">
<path d="M169.8 162.3C169.5 162.3 169.8 160.9 169.8 159.5V155.7C169.8 152.2 168.1 150.5 164.6 150.5H159.7C156.2 150.5 154.5 152.2 154.5 155.7V208.3C154.5 211.8 156.2 213.5 159.7 213.5H165.3C168.8 213.5 170.5 211.8 170.5 208.3V185.3C170.5 174.8 175.7 163.3 186.9 163.3C194.2 163.3 195.3 169.2 195.3 175.8V208.2C195.3 211.7 197 213.4 200.5 213.4H206.1C209.6 213.4 211.3 211.7 211.3 208.2V185.2C211.3 174.1 216.9 163.2 227.3 163.2C234.6 163.2 236 168.8 236 175.7V208.1C236 211.6 237.7 213.3 241.2 213.3H246.4C249.9 213.3 251.6 211.6 251.6 208.1V172.9C251.6 156.2 243.9 148.9 231 148.9C221.2 148.9 212.9 155.2 209.4 161.8H209.1C206.7 153.1 200 148.9 190.6 148.9C180.6 149.1 172.9 156 169.8 162.3ZM76 208.3V130.9C76 127.4 74.3 125.7 70.8 125.7H65.2C61.7 125.7 60 127.4 60 130.9V162.3C53.7 165.8 47.5 167.5 40.5 167.5C33.2 167.5 26.2 165.4 19.6 161.6V131.3C19.6 127.8 17.9 126.1 14.4 126.1H9.2C5.7 126.1 4 127.8 4 131.3V209C4 212.5 5.7 214.2 9.2 214.2H14.8C18.3 214.2 20 212.5 20 209V176.9C26.6 180 33.6 181.8 40.9 181.8C47.5 181.8 54.1 180.4 60.4 177.6V209C60.4 212.5 62.1 214.2 65.6 214.2H71.2C74.3 213.5 76 211.8 76 208.3ZM134.2 182.2C134.2 194 125.5 202.1 115.4 202.1C105.3 202.1 96.6 194.1 96.6 182.2C96.6 170.7 105 162.3 115.4 162.3C125.9 162.3 134.2 170.3 134.2 182.2ZM115.4 149.1C96.2 149.1 80.6 162.7 80.6 182.2C80.6 201.7 95.9 215.3 115.4 215.3C134.9 215.3 150.2 201.7 150.2 182.2C150.2 162.7 134.6 149.1 115.4 149.1ZM242.2 90.9C233.1 102.4 218.5 109 202.8 109C187.1 109 172.5 102 163.4 90.9C162.7 89.9 162.4 88.8 162.4 87.8C162.4 86.8 163.1 85.7 163.8 85C164.5 84.3 165.5 84 166.6 84C168 84 169 84.7 169.7 85.7C177.4 95.1 189.6 100.7 202.5 100.7C215.4 100.7 227.6 95.1 235.3 85.7C236 84.7 237.4 84 238.4 84C239.4 84 240.1 84.3 241.2 85C242.2 85.7 242.6 86.7 242.6 87.8C243.3 89.1 242.9 90.2 242.2 90.9ZM267.3 62.7C267.3 60.6 266.3 58.9 264.9 57.5L207.8 2.09999C206.8 0.699991 204.7 0 202.9 0C200.8 0 199.1 0.699991 197.7 2.09999L176.1 23V19.5C176.1 15.7 173 12.2 168.8 12.2H160.8C157 12.2 153.5 15.3 153.5 19.5V44.9L140.6 57.8C139.2 59.2 138.5 60.9 138.5 63C138.5 66.8 141.6 70.3 145.8 70.3H153.5V118.4C153.5 122.2 156.6 125.7 160.8 125.7H198.4H245.4C249.2 125.7 252.7 122.6 252.7 118.4V70.3H260.7C264.2 70 267.3 66.8 267.3 62.7ZM270.1 178.7C269.4 170.3 273.6 163.4 281.2 161.3C288.2 159.6 294.4 163 297.2 171.4C293.4 171.1 288.8 171.4 283.6 172.8C278.1 173.8 273.6 175.9 270.1 178.7ZM316.4 201.3C318.5 199.2 318.5 196.4 316.4 194L314 192.3C311.6 189.9 310.5 189.9 307.7 192C305.3 194.4 300.7 199 295.2 200.4C284.4 203.2 275.7 198.7 271.9 188.2C277.1 188.9 284.4 188.5 292.8 186.1C301.9 183.7 308.1 180.5 311.3 176.7C312.7 175.3 313.4 173.2 313 171.5C308.5 154.8 295.6 145 278.2 149.5C259.7 154.4 250.7 171.1 255.9 189.9C260.4 207.3 277.2 218.5 297.4 212.9C306.7 210.4 313 204.8 316.4 201.3ZM337 148.7C337 142.8 342.2 138.9 350.2 138.9C357.2 138.9 361.7 141.7 365.5 143.8C367.9 145.2 370.7 145.5 372.5 142.1L374.6 137.9C376 135.1 375.6 132.7 372.9 130.9C369.1 128.1 360.7 124.3 350.3 124.3C333.6 124.3 320.7 134.4 320.7 149.7C320.7 177.2 361.8 173.7 361.8 190.5C361.8 196.4 356.9 200.6 348.6 200.6C339.9 200.6 333.6 196.1 330.8 194.3C327.7 192.6 325.6 192.6 323.5 195.3L321.1 198.8C318.7 202.3 319.7 204.4 321.8 206.1C326 209.6 336.4 215.2 349 215.2C367.5 215.2 378.3 203.4 378.3 189.1C378.1 160.9 337 165.4 337 148.7ZM425.2 174.2C421.7 172.8 416.8 172.1 411.6 172.5C406 172.8 401.1 173.9 397.3 175.6C398.3 167.2 403.9 161.3 411.9 161C419.2 160.6 424.5 165.4 425.2 174.2ZM441.2 177.6C440.5 160.2 429.7 148 411.9 148.7C393.1 149.4 380.5 163.7 381.2 183.2C381.9 201 395.5 215.6 416.4 214.9C426.2 214.6 433.5 210.4 437.7 207.6C440.5 205.9 440.8 203.4 439.1 200.6L437.4 198.2C435.7 195.4 434.3 194.7 431.5 196.5C428.7 198.6 423.5 201.7 417.6 202.1C406.5 202.4 398.8 196.2 397.4 185C402.6 187.1 409.6 187.8 418.3 187.4C427.7 187.1 434.3 185 438.5 182.5C440.1 181.5 441.2 179.7 441.2 177.6ZM483.7 159.9V155C483.7 151.5 482.3 149.8 478.8 149.8C469.7 149.8 462.8 158.2 460.3 165.8H460C460 165.8 460.3 163.7 460.3 161.6V155.7C460.3 152.2 458.6 150.5 455.1 150.5H450.2C446.7 150.5 445 152.2 445 155.7V208.3C445 211.8 446.7 213.5 450.2 213.5H455.8C459.3 213.5 461 211.8 461 208.3V188.1C461 176.6 466.6 165.1 478.1 165.1C481.9 165.1 483.7 163.3 483.7 159.9ZM546.8 156.4C548.2 152.9 546.5 150.5 542.6 150.5H536.7C533.6 150.5 531.8 151.9 530.8 154.7L519 189.5C517.6 193.3 516.9 198.9 516.9 198.9H516.6C516.6 198.9 515.6 193 514.2 189.5L502.4 154.7C501.7 151.6 499.6 150.5 496.5 150.5H490.6C486.8 150.5 485.4 152.9 486.4 156.4L505.6 209.4C506.3 212.5 508.4 213.6 511.5 213.6H521.3C524.4 213.6 526.2 212.2 527.2 209.4L546.8 156.4ZM588.2 174.2C584.7 172.8 579.8 172.1 574.6 172.5C569 172.8 564.1 173.9 560.3 175.6C561.3 167.2 566.9 161.3 574.9 161C581.9 160.6 587.5 165.4 588.2 174.2ZM603.9 177.6C603.2 160.2 592.4 148 574.6 148.7C555.8 149.4 543.2 163.7 543.9 183.2C544.6 201 558.2 215.6 579.1 214.9C588.9 214.6 596.2 210.4 600.4 207.6C603.2 205.9 603.5 203.4 601.8 200.6L600.1 198.2C598.4 195.4 597 194.7 594.2 196.5C591.4 198.6 586.2 201.7 580.3 202.1C569.2 202.4 561.5 196.2 560.1 185C565.3 187.1 572.3 187.8 581 187.4C590.4 187.1 597 185 601.2 182.5C602.9 181.5 603.9 179.7 603.9 177.6Z" fill="#212529"/>
<path d="M595.2 124.3C600.1 124.3 603.9 128.1 603.9 133.4C603.9 138.3 600.1 142.5 595.2 142.5C590.3 142.5 586.5 138.3 586.5 133.4C586.5 128.2 590.3 124.3 595.2 124.3ZM595.2 140C599 140 601.8 136.9 601.8 133C601.8 129.2 599 126 595.2 126C591.4 126 588.6 129.1 588.6 133C588.6 136.9 591.4 140 595.2 140ZM592.1 129.6C592.1 128.9 592.4 128.6 593.1 128.6H595.9C597.6 128.6 598.7 129.6 598.7 131.4C598.7 132.8 597.7 133.5 597.3 133.8C597.3 133.8 597.3 133.8 597.6 134.1L598.6 136.2C598.9 136.9 598.6 137.2 598.3 137.2H598C597.3 137.2 597 136.9 597 136.5L596 134.1H595V136.5C595 137.2 594.7 137.5 594 137.5C593.3 137.5 593 137.2 593 136.5V129.5H592.1V129.6ZM595.2 132.7C595.9 132.7 596.6 132.4 596.6 131.3C596.6 130.6 596.3 129.9 595.2 129.9H594.2V132.7C594.1 132.7 595.2 132.7 595.2 132.7Z" fill="#212529"/>
</g>
<defs>
<filter id="filter0_d" x="0" y="0" width="607.9" height="223.3" filterUnits="userSpaceOnUse" color-interpolation-filters="sRGB">
<feFlood flood-opacity="0" result="BackgroundImageFix"/>
<feColorMatrix in="SourceAlpha" type="matrix" values="0 0 0 0 0 0 0 0 0 0 0 0 0 0 0 0 0 0 127 0"/>
<feOffset dy="4"/>
<feGaussianBlur stdDeviation="2"/>
<feColorMatrix type="matrix" values="0 0 0 0 0 0 0 0 0 0 0 0 0 0 0 0 0 0 0.25 0"/>
<feBlend mode="normal" in2="BackgroundImageFix" result="effect1_dropShadow"/>
<feBlend mode="normal" in="SourceGraphic" in2="effect1_dropShadow" result="shape"/>
</filter>
</defs>
</svg>
