<?xml version="1.0" encoding="utf-8"?>
<!-- Generator: Adobe Illustrator 19.2.1, SVG Export Plug-In . SVG Version: 6.00 Build 0)  -->
<svg version="1.1" id="layer" xmlns="http://www.w3.org/2000/svg" xmlns:xlink="http://www.w3.org/1999/xlink" x="0px" y="0px"
	 viewBox="0 0 652 652" style="enable-background:new 0 0 652 652;" xml:space="preserve">
<style type="text/css">
	.st0{fill:#E7342C;}
</style>
<g>
	<g>
		<g>
			<path class="st0" d="M187,375.6L187,375.6c-0.3,0,0-1.4,0-2.8V369c0-3.5-1.7-5.2-5.2-5.2h-4.9c-3.5,0-5.2,1.7-5.2,5.2v52.6
				c0,3.5,1.7,5.2,5.2,5.2h5.6c3.5,0,5.2-1.7,5.2-5.2v-23c0-10.5,5.2-22,16.4-22c7.3,0,8.4,5.9,8.4,12.5v32.4c0,3.5,1.7,5.2,5.2,5.2
				h5.6c3.5,0,5.2-1.7,5.2-5.2v-23c0-11.1,5.6-22,16-22c7.3,0,8.7,5.6,8.7,12.5v32.4c0,3.5,1.7,5.2,5.2,5.2h5.2
				c3.5,0,5.2-1.7,5.2-5.2v-35.2c0-16.7-7.7-24-20.6-24c-9.8,0-18.1,6.3-21.6,12.9h-0.3c-2.4-8.7-9.1-12.9-18.5-12.9
				C197.8,362.4,190.1,369.3,187,375.6 M93.2,421.6v-77.4c0-3.5-1.7-5.2-5.2-5.2h-5.6c-3.5,0-5.2,1.7-5.2,5.2v31.4
				c-6.3,3.5-12.5,5.2-19.5,5.2c-7.3,0-14.3-2.1-20.9-5.9v-30.3c0-3.5-1.7-5.2-5.2-5.2h-5.2c-3.5,0-5.2,1.7-5.2,5.2v77.7
				c0,3.5,1.7,5.2,5.2,5.2h5.6c3.5,0,5.2-1.7,5.2-5.2v-32.1c6.6,3.1,13.6,4.9,20.9,4.9c6.6,0,13.2-1.4,19.5-4.2v31.4
				c0,3.5,1.7,5.2,5.2,5.2h5.6C91.5,426.8,93.2,425.1,93.2,421.6 M151.4,395.5c0,11.8-8.7,19.9-18.8,19.9s-18.8-8-18.8-19.9
				c0-11.5,8.4-19.9,18.8-19.9C143.1,375.6,151.4,383.6,151.4,395.5 M132.6,362.4c-19.2,0-34.8,13.6-34.8,33.1
				c0,19.5,15.3,33.1,34.8,33.1s34.8-13.6,34.8-33.1C167.4,376,151.8,362.4,132.6,362.4 M259.4,304.2c-9.1,11.5-23.7,18.1-39.4,18.1
				s-30.3-7-39.4-18.1c-0.7-1-1-2.1-1-3.1s0.7-2.1,1.4-2.8c0.7-0.7,1.7-1,2.8-1c1.4,0,2.4,0.7,3.1,1.7c7.7,9.4,19.9,15,32.8,15
				s25.1-5.6,32.8-15c0.7-1,2.1-1.7,3.1-1.7c1,0,1.7,0.3,2.8,1c1,0.7,1.4,1.7,1.4,2.8C260.5,302.4,260.1,303.5,259.4,304.2
				 M284.5,276c0-2.1-1-3.8-2.4-5.2l-57.1-55.4c-1-1.4-3.1-2.1-4.9-2.1c-2.1,0-3.8,0.7-5.2,2.1l-21.6,20.9v-3.5
				c0-3.8-3.1-7.3-7.3-7.3h-8c-3.8,0-7.3,3.1-7.3,7.3v25.4l-12.9,12.9c-1.4,1.4-2.1,3.1-2.1,5.2c0,3.8,3.1,7.3,7.3,7.3h7.7v48.1
				c0,3.8,3.1,7.3,7.3,7.3h37.6h47c3.8,0,7.3-3.1,7.3-7.3v-48.1h8C281.4,283.3,284.5,280.1,284.5,276 M287.3,392
				c-0.7-8.4,3.5-15.3,11.1-17.4c7-1.7,13.2,1.7,16,10.1c-3.8-0.3-8.4,0-13.6,1.4C295.3,387.1,290.8,389.2,287.3,392 M333.6,414.6
				c2.1-2.1,2.1-4.9,0-7.3l-2.4-1.7c-2.4-2.4-3.5-2.4-6.3-0.3c-2.4,2.4-7,7-12.5,8.4c-10.8,2.8-19.5-1.7-23.3-12.2l0,0
				c5.2,0.7,12.5,0.3,20.9-2.1c9.1-2.4,15.3-5.6,18.5-9.4l0,0c1.4-1.4,2.1-3.5,1.7-5.2c-4.5-16.7-17.4-26.5-34.8-22
				c-18.5,4.9-27.5,21.6-22.3,40.4c4.5,17.4,21.3,28.6,41.5,23C323.9,423.7,330.2,418.1,333.6,414.6 M354.2,362
				c0-5.9,5.2-9.8,13.2-9.8c7,0,11.5,2.8,15.3,4.9c2.4,1.4,5.2,1.7,7-1.7l2.1-4.2c1.4-2.8,1-5.2-1.7-7c-3.8-2.8-12.2-6.6-22.6-6.6
				c-16.7,0-29.6,10.1-29.6,25.4c0,27.5,41.1,24,41.1,40.8c0,5.9-4.9,10.1-13.2,10.1c-8.7,0-15-4.5-17.8-6.3c-3.1-1.7-5.2-1.7-7.3,1
				l-2.4,3.5c-2.4,3.5-1.4,5.6,0.7,7.3c4.2,3.5,14.6,9.1,27.2,9.1c18.5,0,29.3-11.8,29.3-26.1C395.3,374.2,354.2,378.7,354.2,362
				 M442.4,387.5c-3.5-1.4-8.4-2.1-13.6-1.7c-5.6,0.3-10.5,1.4-14.3,3.1c1-8.4,6.6-14.3,14.6-14.6
				C436.4,373.9,441.7,378.7,442.4,387.5 M458.4,390.9c-0.7-17.4-11.5-29.6-29.3-28.9c-18.8,0.7-31.4,15-30.7,34.5
				c0.7,17.8,14.3,32.4,35.2,31.7c9.8-0.3,17.1-4.5,21.3-7.3c2.8-1.7,3.1-4.2,1.4-7l-1.7-2.4c-1.7-2.8-3.1-3.5-5.9-1.7
				c-2.8,2.1-8,5.2-13.9,5.6c-11.1,0.3-18.8-5.9-20.2-17.1l0,0c5.2,2.1,12.2,2.8,20.9,2.4c9.4-0.3,16-2.4,20.2-4.9l0,0
				C457.3,394.8,458.4,393,458.4,390.9 M500.9,373.2v-4.9c0-3.5-1.4-5.2-4.9-5.2c-9.1,0-16,8.4-18.5,16h-0.3c0,0,0.3-2.1,0.3-4.2
				V369c0-3.5-1.7-5.2-5.2-5.2h-4.9c-3.5,0-5.2,1.7-5.2,5.2v52.6c0,3.5,1.7,5.2,5.2,5.2h5.6c3.5,0,5.2-1.7,5.2-5.2v-20.2
				c0-11.5,5.6-23,17.1-23C499.1,378.4,500.9,376.6,500.9,373.2 M564,369.7c1.4-3.5-0.3-5.9-4.2-5.9h-5.9c-3.1,0-4.9,1.4-5.9,4.2
				l-11.8,34.8c-1.4,3.8-2.1,9.4-2.1,9.4h-0.3c0,0-1-5.9-2.4-9.4l-11.8-34.8c-0.7-3.1-2.8-4.2-5.9-4.2h-5.9c-3.8,0-5.2,2.4-4.2,5.9
				l19.2,53c0.7,3.1,2.8,4.2,5.9,4.2h9.8c3.1,0,4.9-1.4,5.9-4.2L564,369.7z M605.4,387.5c-3.5-1.4-8.4-2.1-13.6-1.7
				c-5.6,0.3-10.5,1.4-14.3,3.1c1-8.4,6.6-14.3,14.6-14.6C599.1,373.9,604.7,378.7,605.4,387.5 M621.1,390.9
				c-0.7-17.4-11.5-29.6-29.3-28.9c-18.8,0.7-31.4,15-30.7,34.5c0.7,17.8,14.3,32.4,35.2,31.7c9.8-0.3,17.1-4.5,21.3-7.3
				c2.8-1.7,3.1-4.2,1.4-7l-1.7-2.4c-1.7-2.8-3.1-3.5-5.9-1.7c-2.8,2.1-8,5.2-13.9,5.6c-11.1,0.3-18.8-5.9-20.2-17.1l0,0
				c5.2,2.1,12.2,2.8,20.9,2.4c9.4-0.3,16-2.4,20.2-4.9l0,0C620.1,394.8,621.1,393,621.1,390.9"/>
		</g>
	</g>
	<g>
		<path class="st0" d="M612.4,337.6c4.9,0,8.7,3.8,8.7,9.1c0,4.9-3.8,9.1-8.7,9.1c-4.9,0-8.7-4.2-8.7-9.1
			C603.7,341.5,607.5,337.6,612.4,337.6z M612.4,353.3c3.8,0,6.6-3.1,6.6-7c0-3.8-2.8-7-6.6-7c-3.8,0-6.6,3.1-6.6,7
			C605.8,350.2,608.6,353.3,612.4,353.3z M609.3,342.9c0-0.7,0.3-1,1-1h2.8c1.7,0,2.8,1,2.8,2.8c0,1.4-1,2.1-1.4,2.4l0,0
			c0,0,0,0,0.3,0.3l1,2.1c0.3,0.7,0,1-0.3,1h-0.3c-0.7,0-1-0.3-1-0.7l-1-2.4h-1v2.4c0,0.7-0.3,1-1,1l0,0c-0.7,0-1-0.3-1-1v-7H609.3z
			 M612.4,346c0.7,0,1.4-0.3,1.4-1.4c0-0.7-0.3-1.4-1.4-1.4h-1v2.8C611.3,346,612.4,346,612.4,346z"/>
	</g>
</g>
</svg>
