<svg width="142" height="38" viewBox="0 0 142 38" fill="none" xmlns="http://www.w3.org/2000/svg">
<g filter="url(#filter0_d)">
<path d="M47.9113 25.3838V20.9326H43.5203H39.1293V25.3838V29.835H43.5203H47.9113V25.3838Z" fill="#212529"/>
<path d="M102.889 25.3838V20.9326H98.4984H94.1074V25.3838V29.835H98.4984H102.889V25.3838Z" fill="#212529"/>
<path d="M74.4981 23.9027V22.5419L75.2049 22.5686C75.9893 22.5982 76.3107 22.7082 76.529 23.0215C76.906 23.5628 76.8674 24.3758 76.4423 24.8463C76.1659 25.1524 75.7973 25.2635 75.0586 25.2635H74.4981V23.9027V23.9027ZM74.4981 27.0014V25.5513L75.1748 25.575C76.3397 25.616 76.4045 25.6884 76.8478 27.444L77.1022 28.4515H77.6648C77.9743 28.4515 78.2275 28.4377 78.2275 28.4209C78.2275 28.3619 77.6818 26.4344 77.6146 26.256C77.4342 25.7772 77.1306 25.5391 76.5912 25.4532C76.4159 25.4253 76.3132 25.3882 76.3628 25.3708C76.4124 25.3533 76.6082 25.2938 76.7978 25.2384C77.5322 25.024 77.8979 24.5612 77.8949 23.8499C77.8912 22.9816 77.3657 22.4685 76.3262 22.3182C76.0982 22.2853 75.35 22.2578 74.6635 22.2571L73.4154 22.2559V25.3537V28.4515H73.9568H74.4981V27.0014V27.0014ZM60.4829 28.271V28.0906H58.919H57.3551V26.7673V25.4439H58.6784H60.0017V25.2635V25.083H58.6784H57.3551V23.8499V22.6168H58.8588H60.3626V22.4364V22.2559H58.3175H56.2723V25.3537V28.4515H58.3776H60.4829V28.271ZM88.3968 28.4864C89.1437 28.3532 89.5901 28.0529 89.8347 27.5192C90.2019 26.718 89.9268 25.8134 89.175 25.3495C88.993 25.2373 88.48 25.0083 88.0348 24.8406C86.6924 24.335 86.4221 24.1362 86.3629 23.611C86.2498 22.6075 87.4935 22.0614 88.3844 22.7233C88.6176 22.8966 88.7538 23.1824 88.8068 23.6093L88.8441 23.9101L89.3705 23.9275C89.8882 23.9446 89.8968 23.9425 89.8968 23.803C89.8968 23.5234 89.7154 23.0584 89.5149 22.8242C88.9762 22.1949 87.6893 21.9705 86.5823 22.3129C85.1903 22.7435 84.9035 24.3357 86.073 25.1403C86.2233 25.2437 86.7933 25.5 87.3397 25.7099C88.4384 26.132 88.7128 26.3031 88.8794 26.6701C89.3344 27.6719 88.3472 28.5368 87.1534 28.1822C86.6611 28.0361 86.3741 27.6376 86.3085 27.0094L86.2706 26.647H85.7341H85.1976L85.2365 26.9327C85.3217 27.5586 85.7142 28.097 86.2619 28.3393C86.7713 28.5646 87.6277 28.6237 88.3968 28.4864V28.4864ZM81.2651 28.1274C80.6551 27.9362 80.2497 27.4859 80.0144 26.738C79.9006 26.3764 79.8816 26.1787 79.8816 25.3537C79.8816 24.3128 79.9319 24.0282 80.2166 23.459C80.5544 22.7834 81.0803 22.4679 81.8666 22.4689C83.1998 22.4706 83.8802 23.4407 83.8813 25.3412C83.8819 25.9804 83.7631 26.6732 83.5801 27.1C83.4039 27.511 82.9655 27.9444 82.5797 28.0887C82.2071 28.2281 81.6397 28.2448 81.2651 28.1274V28.1274ZM82.9193 28.4181C84.3477 27.9935 85.1638 26.7354 85.0633 25.1127C84.9647 23.5215 84.1129 22.5041 82.6439 22.2231C81.7679 22.0555 80.9895 22.1542 80.2267 22.5295C79.4167 22.9281 78.9206 23.6056 78.7384 24.562C78.3674 26.5092 79.291 28.0868 81.0306 28.4772C81.5342 28.5902 82.435 28.562 82.9193 28.4181V28.4181ZM70.6653 28.4833C71.4503 28.317 71.9602 27.915 72.2258 27.2532C72.3558 26.9293 72.3612 26.8365 72.3805 24.5868L72.4005 22.2559H72.156H71.9116V24.3883C71.9116 26.6513 71.8813 26.9809 71.6336 27.412C71.1388 28.2728 69.6307 28.4812 68.8833 27.7919C68.4089 27.3544 68.3997 27.2966 68.376 24.6169L68.3551 22.2559H67.8176H67.28V24.3502C67.28 25.599 67.3064 26.5885 67.3454 26.8013C67.4264 27.2435 67.7235 27.8156 67.9681 28.0002C68.6376 28.5058 69.679 28.6923 70.6653 28.4833ZM65.2608 28.3924C65.5894 28.327 65.9886 28.2301 66.1481 28.1772L66.4379 28.0809V26.973V25.865H65.8965H65.3552V26.9422V28.0193L64.7811 28.1227C63.1763 28.4116 62.3943 27.9733 62.0409 26.5868C61.9279 26.1433 61.9269 24.5099 62.0394 24.0605C62.1573 23.5895 62.3752 23.15 62.6113 22.9069C63.1559 22.3461 64.0863 22.2852 64.7203 22.7688C64.9437 22.9392 65.295 23.5662 65.295 23.7945C65.295 24.1002 65.3331 24.1206 65.9041 24.1206H66.4402L66.4036 23.9552C66.2332 23.1844 65.9336 22.7895 65.276 22.4692C64.2215 21.9555 62.7488 22.0686 61.8674 22.7309C61.0584 23.3387 60.6565 24.3745 60.7446 25.6244C60.8515 27.1405 61.6642 28.1876 62.9649 28.485C63.4454 28.5948 64.447 28.5545 65.2608 28.3924H65.2608ZM54.0505 28.4864C54.7974 28.3532 55.2439 28.0529 55.4885 27.5192C55.8556 26.718 55.5806 25.8134 54.8287 25.3495C54.6468 25.2373 54.1337 25.0083 53.6886 24.8406C52.3461 24.335 52.0759 24.1362 52.0167 23.611C51.9036 22.6075 53.1473 22.0614 54.0381 22.7233C54.2713 22.8966 54.4076 23.1824 54.4606 23.6093L54.4979 23.9101L55.0242 23.9275C55.5419 23.9446 55.5505 23.9425 55.5505 23.803C55.5505 23.5234 55.3691 23.0584 55.1687 22.8242C54.6299 22.1949 53.343 21.9705 52.236 22.3129C50.844 22.7435 50.5572 24.3357 51.7267 25.1403C51.877 25.2437 52.4471 25.5 52.9935 25.7099C54.0922 26.132 54.3665 26.3031 54.5332 26.6701C54.9882 27.6719 54.001 28.5368 52.8071 28.1822C52.3149 28.0361 52.0279 27.6376 51.9622 27.0094L51.9243 26.647H51.3879H50.8514L50.8903 26.9327C50.9754 27.5586 51.3679 28.097 51.9156 28.3393C52.4251 28.5646 53.2814 28.6237 54.0505 28.4864V28.4864Z" fill="#212529"/>
<path d="M32.3924 24.4212V20.8723H28.8435H25.2946V24.4212V27.9701H28.8435H32.3924V24.4212V24.4212Z" fill="#212529"/>
<path d="M116.724 24.4212V20.8723H113.175H109.626V24.4212V27.9701H113.175H116.724V24.4212Z" fill="#212529"/>
<path d="M19.8809 23.8199V21.053H17.0538H14.2267V23.8199V26.5869H17.0538H19.8809V23.8199Z" fill="#212529"/>
<path d="M127.792 23.8199V21.053H124.965H122.138V23.8199V26.5869H124.965H127.792V23.8199Z" fill="#212529"/>
<path d="M8.93341 23.2184V21.053H6.76798H4.60254V23.2184V25.3839H6.76798H8.93341V23.2184Z" fill="#212529"/>
<path d="M137.416 23.2184V21.053H135.251H133.085V23.2184V25.3839H135.251H137.416V23.2184Z" fill="#212529"/>
<path d="M11.5061 18.9137C13.4076 18.6314 14.783 17.7693 15.4346 16.4513C15.733 15.8477 15.8484 15.3036 15.8498 14.494C15.8516 13.3792 15.5655 12.6371 14.8633 11.9352C14.1285 11.2008 13.3646 10.8287 11.55 10.3213C10.9876 10.164 10.2432 9.95591 9.89585 9.85881C8.30601 9.41443 7.53929 8.74668 7.53189 7.80001C7.52742 7.22809 7.6893 6.82857 8.08636 6.4315C8.54011 5.97775 8.93767 5.8243 9.75272 5.78831C11.3451 5.718 12.115 6.48671 12.2238 8.25573L12.2599 8.84221H13.8827H15.5054L15.4644 8.52641C15.3298 7.48969 14.9866 6.77335 14.2882 6.07119C13.5266 5.30553 12.6924 4.91501 11.3996 4.71899C10.7426 4.61936 9.33962 4.6062 8.72291 4.69388C6.89369 4.95395 5.46592 5.82568 4.78897 7.09576C4.48993 7.65681 4.36196 8.23464 4.36196 9.02385C4.36196 10.2011 4.60083 10.8297 5.32231 11.5509C6.07989 12.3082 7.01433 12.7245 9.31827 13.3311C11.1295 13.8079 11.6166 14.0098 12.1559 14.5069C12.7164 15.0235 12.8534 15.8872 12.4915 16.6223C12.2611 17.0904 11.9379 17.3953 11.4107 17.642C11.065 17.8038 10.9342 17.8301 10.3587 17.8538C9.3367 17.8959 8.69677 17.7009 8.16137 17.1842C7.67716 16.7169 7.36951 15.8489 7.36951 14.9501V14.5566H5.68476H4L4.03622 14.9024C4.15193 16.0075 4.47916 16.7221 5.20255 17.4493C5.64373 17.8928 5.80601 18.0101 6.34756 18.2765C7.00537 18.6002 7.82427 18.8473 8.54246 18.9388C9.25384 19.0295 10.8153 19.0163 11.5061 18.9137V18.9137ZM24.1782 18.8338C24.9763 18.6203 25.5001 18.3245 26.0509 17.7763C26.4541 17.3751 26.5896 17.1873 26.8479 16.6712L27.1592 16.0494V17.3481V18.6468H29.0239H30.8886L30.8881 13.94C30.8875 8.31787 30.8637 7.99912 30.3675 6.97752C29.7793 5.76651 28.3195 4.93879 26.3472 4.69805C26.0494 4.66171 25.2915 4.63197 24.663 4.63197C23.3817 4.63197 22.694 4.69918 21.8881 4.90313C20.8161 5.17444 20.1484 5.52086 19.5471 6.11779C18.9111 6.7491 18.5046 7.5866 18.407 8.46626L18.3654 8.84221H20.2913H22.2173L22.2541 8.43619C22.3558 7.31524 22.5416 6.77519 22.9748 6.34201C23.4305 5.88631 23.8182 5.75151 24.663 5.75506C25.9257 5.76035 26.5012 6.17896 26.8056 7.31352C26.9108 7.70568 26.9386 8.02009 26.9633 9.09785L26.9933 10.4061H26.7521C26.2715 10.4061 24.3408 10.5312 23.4299 10.6214C22.4049 10.7229 21.2686 10.9325 20.6629 11.132C19.1347 11.6351 18.1643 12.5724 17.7981 13.8992C17.6521 14.4281 17.6533 15.6369 17.8004 16.1806C18.1973 17.6477 19.3682 18.6104 21.1338 18.9213C21.8481 19.0471 23.5656 18.9977 24.1783 18.8338H24.1782ZM23.0211 17.454C22.1556 17.1446 21.7051 16.3752 21.6412 15.0972C21.5166 12.6033 22.7287 11.6302 26.1818 11.4519L26.9788 11.4107L26.9785 11.946C26.9782 12.7816 26.8639 14.1104 26.7399 14.7232C26.4979 15.918 25.7957 16.9148 24.901 17.3335C24.5541 17.4959 24.413 17.5263 23.9178 17.5455C23.4609 17.5632 23.2728 17.544 23.0211 17.454H23.0211ZM67.0394 18.8616C67.7278 18.7019 68.5145 18.2981 68.9451 17.8833C69.3518 17.4914 69.7741 16.8743 70.0073 16.331L70.1623 15.9701L70.1647 17.3085L70.1672 18.6468H72.0319H73.8966L73.8953 14.331C73.894 9.72783 73.8514 8.54856 73.6595 7.80156C73.2024 6.02189 71.729 4.97924 69.2649 4.69161C68.2776 4.57637 66.0972 4.63942 65.271 4.80712C63.9649 5.07221 63.0655 5.5223 62.4079 6.23987C61.836 6.86406 61.3852 7.89744 61.3852 8.58416V8.84221H63.301H65.2168L65.2547 8.31588C65.3685 6.73583 65.9257 5.97973 67.1312 5.76981C67.896 5.63663 68.7275 5.81443 69.1727 6.20636C69.7259 6.69331 69.9083 7.38377 69.9674 9.21452L70.0059 10.4061L69.7707 10.4062C69.2648 10.4062 67.2653 10.5328 66.4349 10.6173C64.6883 10.7951 63.7603 11.0155 62.8288 11.4739C62.3645 11.7024 62.1666 11.8457 61.7734 12.2385C60.9828 13.0281 60.6624 13.8268 60.6644 15.0023C60.6664 16.194 60.9845 17.0535 61.6809 17.7493C62.2925 18.3603 63.0293 18.7192 64.0763 18.9158C64.7182 19.0364 66.42 19.0053 67.0394 18.8616V18.8616ZM66.0168 17.4643C64.9971 17.1099 64.4728 15.9127 64.6371 14.3136C64.7237 13.471 64.9484 12.9801 65.472 12.4904C66.1494 11.8567 67.2461 11.5479 69.1604 11.4519L69.9788 11.4108L69.9502 12.2168C69.9106 13.331 69.8184 14.3267 69.7084 14.8267C69.5909 15.3612 69.1632 16.2475 68.8477 16.6104C68.5322 16.9732 68.0152 17.3132 67.5666 17.4528C67.1264 17.5898 66.3936 17.5953 66.0168 17.4643V17.4643ZM110.228 18.8007C110.891 18.6591 111.219 18.543 111.822 18.2353C112.781 17.7459 113.608 16.7974 113.96 15.7836C114.108 15.3586 114.258 14.677 114.258 14.4323V14.2558H113.424H112.589L112.548 14.5628C112.491 14.9995 112.201 15.7566 111.944 16.1445C110.958 17.629 108.971 18.1478 107.371 17.3384C106.907 17.1042 106.385 16.5315 106.092 15.937C105.82 15.3848 105.657 14.8432 105.495 13.955C105.345 13.1343 105.345 10.43 105.495 9.4278C105.698 8.07271 106.054 7.14591 106.599 6.55628C106.984 6.13961 107.37 5.9246 107.898 5.83271C108.902 5.65777 109.764 6.09649 110.192 7.00014C110.457 7.56068 110.649 8.5815 110.649 9.4271V9.80462H112.574H114.499V9.60197C114.499 9.21351 114.313 8.33736 114.137 7.89949C113.682 6.76199 112.916 5.93885 111.766 5.34929C110.741 4.82452 109.819 4.63163 108.336 4.63163C106.452 4.63163 105.008 5.05311 103.785 5.95967C102.512 6.9038 101.718 8.26223 101.346 10.1355C101.199 10.8709 101.198 12.7248 101.342 13.5121C101.629 15.0729 102.232 16.2569 103.216 17.1911C104.091 18.022 105.081 18.5209 106.408 18.7985C107.391 19.004 109.269 19.0051 110.228 18.8006L110.228 18.8007ZM129.577 18.9428C131.161 18.7241 132.235 17.9336 132.936 16.4706L133.145 16.0336V17.3402V18.6468H135.01H136.875L136.874 13.9701C136.873 11.2969 136.847 9.04853 136.813 8.7219C136.686 7.51117 136.375 6.77927 135.698 6.0979C134.975 5.37122 133.783 4.87495 132.333 4.69805C131.648 4.61444 129.663 4.61204 128.993 4.69401C127.337 4.89677 126 5.48968 125.316 6.32531C124.808 6.94584 124.473 7.71994 124.39 8.46625L124.348 8.8422H126.271H128.193L128.265 8.18662C128.407 6.87137 128.796 6.21936 129.634 5.89095C130.131 5.69581 131.151 5.69373 131.649 5.88686C132.053 6.04344 132.371 6.33637 132.575 6.73954C132.845 7.27106 132.912 7.69729 132.947 9.08975L132.98 10.3899L132.115 10.431C130.772 10.4948 129.026 10.64 128.363 10.743C126.541 11.0265 125.348 11.5458 124.602 12.3796C123.295 13.8402 123.339 16.4189 124.694 17.7754C125.261 18.3429 126.256 18.8019 127.221 18.941C127.747 19.0169 129.033 19.0179 129.577 18.9428L129.577 18.9428ZM129.085 17.48C128.534 17.3055 128.126 16.9477 127.902 16.4422C127.487 15.5042 127.522 13.9668 127.978 13.1116C128.543 12.0523 129.742 11.5771 132.168 11.4519L132.965 11.4107V11.9047C132.965 12.7165 132.845 14.1277 132.725 14.7232C132.522 15.7323 131.945 16.6708 131.239 17.1384C130.661 17.521 129.698 17.6737 129.085 17.48V17.48ZM57.7159 18.8033C57.9972 18.7521 58.4911 18.6511 58.8137 18.5788L59.4002 18.4473V17.7882C59.4002 17.1354 59.3989 17.1293 59.2648 17.1603C59.1904 17.1776 58.8317 17.2617 58.4678 17.3473C56.8822 17.7202 56.0979 17.4643 55.7669 16.4661C55.5804 15.9036 55.5515 15.1274 55.551 10.6618L55.5505 6.19556H57.5054H59.4603V5.59405V4.99254H57.5054H55.5505V2.64187V0.291198L55.355 0.332716C55.2475 0.35555 54.3626 0.560708 53.3886 0.788628C52.4145 1.01654 51.6093 1.20302 51.5991 1.20302C51.5889 1.20302 51.5805 2.05566 51.5805 3.09778V4.99254H50.4978H49.4151V5.59405V6.19556H50.4978H51.5805L51.5822 10.2106C51.5838 14.2299 51.628 15.7076 51.7634 16.2709C52.068 17.5382 53.1365 18.5686 54.4076 18.8206C54.5896 18.8567 54.7926 18.8988 54.8588 18.914C55.1184 18.974 57.227 18.8923 57.7159 18.8033H57.7159ZM91.4306 18.7738C92.9756 18.3664 94.0311 17.3323 94.6198 15.6493L94.76 15.2483L94.7645 16.9476L94.7689 18.6468H96.6035H98.4382V11.8197V4.99254H96.4583H94.4785L94.4524 8.94747C94.4247 13.1502 94.4099 13.3887 94.104 14.5866C93.9434 15.2155 93.5242 16.0747 93.1964 16.447C92.8543 16.8355 92.3175 17.177 91.8038 17.333C90.7683 17.6475 89.7252 17.2628 89.2864 16.4046C88.9605 15.767 88.971 15.9579 88.9497 10.2708L88.9299 4.99254H86.9471H84.9643V9.82124C84.9643 12.6647 84.9891 14.8595 85.0245 15.1596C85.2634 17.1813 86.4804 18.4748 88.5033 18.8571C89.1906 18.9869 90.7954 18.9413 91.4306 18.7738H91.4306ZM38.408 15.4438C38.4083 13.6821 38.4358 11.7941 38.4691 11.2482C38.6453 8.35788 39.4692 6.79477 41.0743 6.30593C42.1307 5.9842 43.1978 6.39373 43.6302 7.28679C43.9571 7.96224 43.9582 7.98122 43.9853 13.5189L44.0104 18.6468H45.9634H47.9163L47.8956 13.4287C47.8725 7.57674 47.8967 7.90738 47.4191 6.91737C46.9386 5.92121 46.0047 5.20087 44.7534 4.86122C44.3424 4.74966 44.1054 4.72995 43.1293 4.72623C42.1133 4.72233 41.9299 4.7373 41.477 4.86105C39.9698 5.27277 38.8921 6.30423 38.3188 7.88361L38.1127 8.45122L38.1097 6.72188L38.1067 4.99254H36.3022H34.4976V11.8197V18.6468H36.4525H38.4075L38.4081 15.4438H38.408ZM81.4155 9.50387V0.360906H79.4305H77.4455V9.50387V18.6468H79.4305H81.4155V9.50387ZM120.814 11.8197V4.99254H118.859H116.905V11.8197V18.6468H118.859H120.814V11.8197ZM121.657 0.774788C121.739 0.668879 121.848 0.537332 121.897 0.48246C121.947 0.427592 122.049 0.296593 122.124 0.191353L122.262 0H120.606C119.249 0 118.95 0.0148049 118.95 0.0818325C117.265 3.13625 118.95 0.0818332 117.265 3.13625C117.265 3.16471 117.841 3.18801 118.544 3.18801H119.823C120.433 2.32715 121.029 1.57535 121.657 0.774788V0.774788Z" fill="#212529"/>
</g>
<defs>
<filter id="filter0_d" x="0" y="0" width="141.416" height="37.835" filterUnits="userSpaceOnUse" color-interpolation-filters="sRGB">
<feFlood flood-opacity="0" result="BackgroundImageFix"/>
<feColorMatrix in="SourceAlpha" type="matrix" values="0 0 0 0 0 0 0 0 0 0 0 0 0 0 0 0 0 0 127 0"/>
<feOffset dy="4"/>
<feGaussianBlur stdDeviation="2"/>
<feColorMatrix type="matrix" values="0 0 0 0 0 0 0 0 0 0 0 0 0 0 0 0 0 0 0.25 0"/>
<feBlend mode="normal" in2="BackgroundImageFix" result="effect1_dropShadow"/>
<feBlend mode="normal" in="SourceGraphic" in2="effect1_dropShadow" result="shape"/>
</filter>
</defs>
</svg>
