<svg id="Layer_1" height="512" viewBox="0 0 150 150" width="512" xmlns="http://www.w3.org/2000/svg" data-name="Layer 1"><path d="m13.064 106.906a1 1 0 0 1 -1-1v-21.432a1 1 0 0 1 2 0v21.432a1 1 0 0 1 -1 1z"/><path d="m84.553 85.474h-18.636a9.333 9.333 0 0 1 -9.317-9.323v-13.023a9.333 9.333 0 0 1 9.322-9.323h18.631a9.333 9.333 0 0 1 9.322 9.323v13.023a9.333 9.333 0 0 1 -9.322 9.323zm-18.636-29.669a7.331 7.331 0 0 0 -7.317 7.323v13.023a7.331 7.331 0 0 0 7.322 7.323h18.631a7.331 7.331 0 0 0 7.322-7.323v-13.023a7.331 7.331 0 0 0 -7.322-7.323z"/><path d="m137.485 106.908a1 1 0 0 1 -1-1v-21.433a22.81 22.81 0 0 0 -22.785-22.784h-21.187a1 1 0 0 1 0-2h21.187a24.812 24.812 0 0 1 24.784 24.784v21.433a1 1 0 0 1 -.999 1z"/><path d="m13.061 85.475a1 1 0 0 1 -1-1 24.811 24.811 0 0 1 24.783-24.784h21.118a1 1 0 0 1 0 2h-21.118a22.809 22.809 0 0 0 -22.783 22.784 1 1 0 0 1 -1 1z"/><path d="m136.866 117.089h-17.266a3.129 3.129 0 0 1 -3.117-3.134v-5.92a3.129 3.129 0 0 1 3.117-3.135h17.262a3.138 3.138 0 0 1 3.138 3.135v5.92a3.138 3.138 0 0 1 -3.134 3.134zm-17.266-10.189a1.127 1.127 0 0 0 -1.117 1.134v5.92a1.114 1.114 0 0 0 1.117 1.134h17.262a1.136 1.136 0 0 0 1.138-1.133v-5.92a1.149 1.149 0 0 0 -1.134-1.134z"/><path d="m30.378 117.089h-17.261a3.129 3.129 0 0 1 -3.117-3.134v-5.92a3.129 3.129 0 0 1 3.117-3.134h17.261a3.139 3.139 0 0 1 3.135 3.134v5.92a3.139 3.139 0 0 1 -3.135 3.134zm-17.261-10.189a1.127 1.127 0 0 0 -1.117 1.135v5.92a1.114 1.114 0 0 0 1.117 1.134h17.261a1.136 1.136 0 0 0 1.135-1.134v-5.92a1.15 1.15 0 0 0 -1.135-1.134z"/><path d="m119.6 106.9a1 1 0 0 1 -1-1v-21.4a4.842 4.842 0 0 0 -4.832-4.842h-21.276a1 1 0 0 1 0-2h21.28a6.845 6.845 0 0 1 6.828 6.842v21.4a1 1 0 0 1 -1 1z"/><path d="m30.728 106.9a1 1 0 0 1 -1-1v-21.4a6.85 6.85 0 0 1 6.842-6.842h21.412a1 1 0 0 1 0 2h-21.412a4.847 4.847 0 0 0 -4.842 4.842v21.4a1 1 0 0 1 -1 1z"/><path d="m103.187 79.657a1 1 0 0 1 -1-1v-17.963a1 1 0 0 1 2 0v17.963a1 1 0 0 1 -1 1z"/><path d="m47.361 79.657a1 1 0 0 1 -1-1v-17.963a1 1 0 0 1 2 0v17.963a1 1 0 0 1 -1 1z"/><path d="m83.057 55.8h-15.644a1 1 0 0 1 -1-1v-6.43a3.124 3.124 0 0 1 3.121-3.121h11.4a3.124 3.124 0 0 1 3.121 3.121v6.43a1 1 0 0 1 -.998 1zm-14.644-2h13.644v-5.43a1.122 1.122 0 0 0 -1.121-1.121h-11.4a1.122 1.122 0 0 0 -1.121 1.121z"/><path d="m91.224 41.072h-32.269a4.081 4.081 0 1 1 0-8.161h32.269a4.081 4.081 0 0 1 0 8.161zm-32.269-6.161a2.081 2.081 0 1 0 0 4.161h32.269a2.081 2.081 0 0 0 0-4.161z"/><path d="m77.3 47.25h-4.131a1 1 0 0 1 -1-1v-6.178a1 1 0 0 1 1-1h4.131a1 1 0 0 1 1 1v6.178a1 1 0 0 1 -1 1zm-3.132-2h2.132v-4.178h-2.131z"/><path d="m75.235 79.039a6.159 6.159 0 0 1 -6.152-6.152c0-3.028 4.748-11.227 5.289-12.152a1.041 1.041 0 0 1 1.727 0c.541.925 5.288 9.124 5.288 12.152a6.159 6.159 0 0 1 -6.152 6.152zm0-15.777c-1.871 3.373-4.152 8.012-4.152 9.625a4.152 4.152 0 0 0 8.3 0c.004-1.614-2.276-6.252-4.148-9.625z"/><path d="m13.064 106.906a1 1 0 0 1 -1-1v-21.432a1 1 0 0 1 2 0v21.432a1 1 0 0 1 -1 1z"/><path d="m84.553 85.474h-18.636a9.333 9.333 0 0 1 -9.317-9.323v-13.023a9.333 9.333 0 0 1 9.322-9.323h18.631a9.333 9.333 0 0 1 9.322 9.323v13.023a9.333 9.333 0 0 1 -9.322 9.323zm-18.636-29.669a7.331 7.331 0 0 0 -7.317 7.323v13.023a7.331 7.331 0 0 0 7.322 7.323h18.631a7.331 7.331 0 0 0 7.322-7.323v-13.023a7.331 7.331 0 0 0 -7.322-7.323z"/><path d="m137.485 106.908a1 1 0 0 1 -1-1v-21.433a22.81 22.81 0 0 0 -22.785-22.784h-21.187a1 1 0 0 1 0-2h21.187a24.812 24.812 0 0 1 24.784 24.784v21.433a1 1 0 0 1 -.999 1z"/><path d="m13.061 85.475a1 1 0 0 1 -1-1 24.811 24.811 0 0 1 24.783-24.784h21.118a1 1 0 0 1 0 2h-21.118a22.809 22.809 0 0 0 -22.783 22.784 1 1 0 0 1 -1 1z"/><path d="m136.866 117.089h-17.266a3.129 3.129 0 0 1 -3.117-3.134v-5.92a3.129 3.129 0 0 1 3.117-3.135h17.262a3.138 3.138 0 0 1 3.138 3.135v5.92a3.138 3.138 0 0 1 -3.134 3.134zm-17.266-10.189a1.127 1.127 0 0 0 -1.117 1.134v5.92a1.114 1.114 0 0 0 1.117 1.134h17.262a1.136 1.136 0 0 0 1.138-1.133v-5.92a1.149 1.149 0 0 0 -1.134-1.134z"/><path d="m30.378 117.089h-17.261a3.129 3.129 0 0 1 -3.117-3.134v-5.92a3.129 3.129 0 0 1 3.117-3.134h17.261a3.139 3.139 0 0 1 3.135 3.134v5.92a3.139 3.139 0 0 1 -3.135 3.134zm-17.261-10.189a1.127 1.127 0 0 0 -1.117 1.135v5.92a1.114 1.114 0 0 0 1.117 1.134h17.261a1.136 1.136 0 0 0 1.135-1.134v-5.92a1.15 1.15 0 0 0 -1.135-1.134z"/><path d="m119.6 106.9a1 1 0 0 1 -1-1v-21.4a4.842 4.842 0 0 0 -4.832-4.842h-21.276a1 1 0 0 1 0-2h21.28a6.845 6.845 0 0 1 6.828 6.842v21.4a1 1 0 0 1 -1 1z"/><path d="m30.728 106.9a1 1 0 0 1 -1-1v-21.4a6.85 6.85 0 0 1 6.842-6.842h21.412a1 1 0 0 1 0 2h-21.412a4.847 4.847 0 0 0 -4.842 4.842v21.4a1 1 0 0 1 -1 1z"/><path d="m103.187 79.657a1 1 0 0 1 -1-1v-17.963a1 1 0 0 1 2 0v17.963a1 1 0 0 1 -1 1z"/><path d="m47.361 79.657a1 1 0 0 1 -1-1v-17.963a1 1 0 0 1 2 0v17.963a1 1 0 0 1 -1 1z"/><path d="m83.057 55.8h-15.644a1 1 0 0 1 -1-1v-6.43a3.124 3.124 0 0 1 3.121-3.121h11.4a3.124 3.124 0 0 1 3.121 3.121v6.43a1 1 0 0 1 -.998 1zm-14.644-2h13.644v-5.43a1.122 1.122 0 0 0 -1.121-1.121h-11.4a1.122 1.122 0 0 0 -1.121 1.121z"/><path d="m91.224 41.072h-32.269a4.081 4.081 0 1 1 0-8.161h32.269a4.081 4.081 0 0 1 0 8.161zm-32.269-6.161a2.081 2.081 0 1 0 0 4.161h32.269a2.081 2.081 0 0 0 0-4.161z"/><path d="m77.3 47.25h-4.131a1 1 0 0 1 -1-1v-6.178a1 1 0 0 1 1-1h4.131a1 1 0 0 1 1 1v6.178a1 1 0 0 1 -1 1zm-3.132-2h2.132v-4.178h-2.131z"/><path d="m75.235 79.039a6.159 6.159 0 0 1 -6.152-6.152c0-3.028 4.748-11.227 5.289-12.152a1.041 1.041 0 0 1 1.727 0c.541.925 5.288 9.124 5.288 12.152a6.159 6.159 0 0 1 -6.152 6.152zm0-15.777c-1.871 3.373-4.152 8.012-4.152 9.625a4.152 4.152 0 0 0 8.3 0c.004-1.614-2.276-6.252-4.148-9.625z"/></svg>