<svg width="230" height="31" viewBox="0 0 230 31" fill="none" xmlns="http://www.w3.org/2000/svg">
<g filter="url(#filter0_i)">
<path d="M1.83375 28.7695V23.8477C4.7732 24.9414 8.09547 25.4883 11.8005 25.4883C16.2986 25.4883 18.5476 23.9844 18.5476 20.9766C18.5476 18.7891 17.1668 17.6953 14.405 17.6953H9.81129C3.80933 17.6953 0.808357 14.9609 0.808357 9.49219C0.808357 3.47656 5.08082 0.46875 13.6257 0.46875C16.907 0.46875 20.0173 0.947266 22.9568 1.9043V6.82617C20.0173 5.73242 16.907 5.18555 13.6257 5.18555C8.70387 5.18555 6.24293 6.62109 6.24293 9.49219C6.24293 11.6797 7.43238 12.7734 9.81129 12.7734H14.405C20.7898 12.7734 23.9822 15.5078 23.9822 20.9766C23.9822 27.1289 19.9216 30.2051 11.8005 30.2051C8.09547 30.2051 4.7732 29.7266 1.83375 28.7695ZM36.5707 15.2549C36.5707 22.0771 39.599 25.4883 45.6557 25.4883C51.5619 25.4883 54.515 22.0771 54.515 15.2549C54.515 8.54199 51.5619 5.18555 45.6557 5.18555C39.599 5.18555 36.5707 8.54199 36.5707 15.2549ZM30.9311 15.3779C30.9311 5.43848 35.8393 0.46875 45.6557 0.46875C55.3217 0.46875 60.1547 5.43848 60.1547 15.3779C60.1547 25.2627 55.3217 30.2051 45.6557 30.2051C36.2768 30.2051 31.3686 25.2627 30.9311 15.3779ZM74.0967 0.673828V25.2832H85.7452V30H68.6621V0.673828H74.0967ZM113.509 0.673828V5.34961H99.6462V12.7324H112.812V17.5928H99.5846V30H94.2526V0.673828H113.509ZM141.561 0.673828V5.34961H126.877V12.7324H140.864V17.5928H126.816V25.2832H141.848V30H121.484V0.673828H141.561ZM169.407 0.673828V5.39062H160.999V30H155.564V5.39062H147.156V0.673828H169.407ZM195.941 0.673828V5.34961H181.257V12.7324H195.244V17.5928H181.196V25.2832H196.228V30H175.864V0.673828H195.941ZM204.613 29.959V0.673828H217.943C223.931 0.673828 226.925 3.29199 226.925 8.52832C226.925 12.0693 224.594 15.002 219.932 17.3262L229.222 30H222.372L213.451 17.2236V14.7422C218.647 13.8535 221.244 11.8369 221.244 8.69238C221.244 6.53223 220.028 5.45215 217.594 5.45215H210.15V29.959H204.613Z" fill="#FF984D"/>
</g>
<defs>
<filter id="filter0_i" x="0.80835" y="0.46875" width="228.414" height="33.7363" filterUnits="userSpaceOnUse" color-interpolation-filters="sRGB">
<feFlood flood-opacity="0" result="BackgroundImageFix"/>
<feBlend mode="normal" in="SourceGraphic" in2="BackgroundImageFix" result="shape"/>
<feColorMatrix in="SourceAlpha" type="matrix" values="0 0 0 0 0 0 0 0 0 0 0 0 0 0 0 0 0 0 127 0" result="hardAlpha"/>
<feOffset dy="4"/>
<feGaussianBlur stdDeviation="2"/>
<feComposite in2="hardAlpha" operator="arithmetic" k2="-1" k3="1"/>
<feColorMatrix type="matrix" values="0 0 0 0 0 0 0 0 0 0 0 0 0 0 0 0 0 0 0.25 0"/>
<feBlend mode="normal" in2="shape" result="effect1_innerShadow"/>
</filter>
</defs>
</svg>
