<svg width="347" height="237" viewBox="0 0 347 237" fill="none" xmlns="http://www.w3.org/2000/svg">
<path fill-rule="evenodd" clip-rule="evenodd" d="M12.418 228.352C14.0742 229.727 15.8945 230.949 17.8789 232.02C23.0898 234.832 29.1055 236.262 35.9297 236.312C42.7852 236.266 48.8086 234.816 54 231.973C55.9297 230.918 57.6992 229.707 59.3164 228.348L40.875 228.352C39.3672 228.738 37.75 228.945 36.0273 228.969C34.2773 228.949 32.6367 228.742 31.1055 228.352H12.418ZM86.3984 228.352C87 228.941 87.625 229.508 88.2773 230.047C90.918 232.148 93.8516 233.719 97.0781 234.758C100.309 235.797 103.879 236.316 107.797 236.312C112.348 236.32 116.34 235.625 119.762 234.234C123 232.918 125.777 230.957 128.094 228.352H110.48C110.02 228.375 109.551 228.383 109.07 228.383C108.711 228.383 108.359 228.371 108.012 228.355L86.3984 228.352ZM137.703 228.352V234.941H170.367V228.352H137.703ZM175.859 228.352V234.941H212.152V228.352H175.859ZM215.793 228.352V234.941H222.555L224.875 228.352H215.793ZM225.359 228.352C228.242 231.203 231.238 233.246 234.336 234.465C237.562 235.738 241.484 236.352 246.098 236.312C253.488 236.246 259.285 234.422 263.496 230.84C264.395 230.074 265.199 229.246 265.914 228.355L225.359 228.352ZM287.656 228.352C289.312 229.727 291.133 230.949 293.113 232.02C298.328 234.832 304.344 236.262 311.168 236.312C318.023 236.266 324.047 234.816 329.238 231.973C331.168 230.918 332.937 229.707 334.555 228.348L316.113 228.352C314.605 228.738 312.988 228.945 311.266 228.969C309.516 228.949 307.875 228.742 306.344 228.352H287.656Z" fill="#212529"/>
<path fill-rule="evenodd" clip-rule="evenodd" d="M5.60938 220.352C5.61328 220.359 5.62109 220.371 5.625 220.379C7.45703 223.445 9.72266 226.102 12.418 228.348L31.1055 228.352C27.2656 227.367 24.1133 225.223 21.6523 221.918C21.2812 221.418 20.9297 220.898 20.5977 220.355L5.60938 220.352ZM51.3555 220.352C50.9766 220.973 50.5742 221.562 50.1445 222.125C47.7148 225.316 44.6211 227.395 40.875 228.352H59.3164C61.9883 226.102 64.2344 223.437 66.0508 220.355L51.3555 220.352ZM80.6133 220.352C82.1563 223.406 84.0859 226.074 86.3984 228.352H108.012C102.797 228.102 98.8398 225.992 96.1367 222.027C95.7734 221.5 95.4375 220.941 95.1211 220.348L80.6133 220.352ZM123.684 220.352C122.926 221.738 122.059 222.934 121.086 223.941C118.469 226.648 114.934 228.117 110.48 228.352H128.094C128.227 228.199 128.359 228.047 128.492 227.891C130.516 225.598 131.988 223.121 132.906 220.457C132.918 220.426 132.93 220.391 132.941 220.359L123.684 220.352ZM149.902 220.352L149.77 220.723C148.98 222.941 148.398 224.418 148.027 225.152C147.656 225.887 147.223 226.406 146.727 226.711C146.062 227.195 145.332 227.531 144.531 227.719C143.734 227.906 142.734 227.996 141.527 227.988H137.703V228.352H170.367V227.988H162.422C161.254 227.996 160.402 227.812 159.871 227.438C159.34 227.062 159.078 226.461 159.09 225.633C159.078 225.121 159.145 224.5 159.297 223.766C159.445 223.035 159.734 222.02 160.164 220.723L160.281 220.352H149.902ZM186.422 220.352L186.555 220.723C186.949 221.867 187.262 222.844 187.484 223.645C187.711 224.445 187.824 224.977 187.828 225.238C187.828 226.172 187.383 226.863 186.492 227.312C185.598 227.766 184.246 227.992 182.434 227.988H175.859V228.352H212.152V227.988H206.953C205.172 228.078 203.832 227.652 202.934 226.711C202.035 225.773 201.086 223.777 200.09 220.723L199.965 220.352H186.422ZM215.793 220.352V228.352H224.875L225.004 227.988C225.121 228.109 225.242 228.23 225.359 228.348L265.914 228.352C267.723 226.086 268.922 223.418 269.508 220.348L258.996 220.352C258.605 222.477 257.496 224.195 255.668 225.5C253.379 227.133 250.156 227.961 246 227.988C242.848 227.984 239.883 227.477 237.109 226.469C234.336 225.457 231.836 223.969 229.613 222.004C229.012 221.473 228.449 220.922 227.938 220.359L215.793 220.352ZM280.848 220.352C280.855 220.359 280.859 220.371 280.863 220.379C282.695 223.445 284.961 226.102 287.656 228.348L306.344 228.352C302.504 227.367 299.352 225.223 296.891 221.918C296.52 221.418 296.168 220.898 295.836 220.355L280.848 220.352ZM326.594 220.352C326.219 220.973 325.812 221.562 325.383 222.125C322.953 225.316 319.859 227.395 316.113 228.352H334.555C337.227 226.102 339.473 223.437 341.289 220.355L326.594 220.352Z" fill="#212529"/>
<path fill-rule="evenodd" clip-rule="evenodd" d="M1.70703 196.352C1.33203 198.551 1.13281 200.859 1.11328 203.266C1.16797 209.715 2.66797 215.41 5.60938 220.352H20.5977C17.8516 215.879 16.457 209.953 16.4023 202.578C16.418 200.371 16.543 198.297 16.7891 196.352H1.70703ZM54.9062 196.352C55.2031 198.641 55.3555 201.078 55.3594 203.656C55.3008 210.508 53.9687 216.074 51.3555 220.355L66.0508 220.352C66.0938 220.281 66.1406 220.207 66.1836 220.133C69.1094 215.086 70.5977 209.234 70.6484 202.578C70.6289 200.43 70.4531 198.355 70.1211 196.355L54.9062 196.352ZM76.875 196.352C76.6406 198.211 76.5195 200.117 76.5156 202.086C76.543 207.98 77.5703 213.34 79.6055 218.164C79.9219 218.914 80.2578 219.645 80.6133 220.352H95.1211C92.9141 216.199 91.8086 210.469 91.8047 203.168C91.8008 200.723 91.9062 198.453 92.1172 196.355L76.875 196.352ZM158.449 196.352L149.902 220.352H160.281L162.227 214.047H184.199L186.422 220.352H199.965L191.781 196.352H178.664L182.434 207.098H164.68L168.246 196.352H158.449ZM216.352 196.352C216.941 197.535 217.668 198.629 218.535 199.637C219.848 201.176 221.609 202.434 223.828 203.41C226.047 204.391 229.09 205.258 232.949 206.012C238.734 207.187 243.383 208.223 246.895 209.113C250.41 210.008 252.828 210.773 254.145 211.406C255.813 212.238 257.066 213.254 257.898 214.449C258.734 215.648 259.148 217.055 259.148 218.668C259.145 219.254 259.094 219.813 258.996 220.348L269.508 220.352C269.77 218.984 269.91 217.539 269.93 216.02C269.926 212.34 269.074 209.105 267.367 206.32C265.664 203.531 263.121 201.207 259.738 199.34C257.645 198.148 255.27 197.148 252.613 196.348L216.352 196.352ZM276.945 196.352C276.57 198.551 276.371 200.859 276.352 203.266C276.406 209.715 277.902 215.41 280.848 220.352H295.836C293.09 215.879 291.691 209.953 291.641 202.578C291.656 200.371 291.781 198.297 292.027 196.352H276.945ZM330.145 196.352C330.441 198.641 330.594 201.078 330.598 203.656C330.539 210.508 329.207 216.074 326.594 220.355L341.289 220.352C341.332 220.281 341.379 220.207 341.422 220.133C344.348 215.086 345.836 209.234 345.887 202.578C345.863 200.43 345.691 198.355 345.359 196.355L330.145 196.352ZM132.941 220.352C133.84 217.711 134.418 214.234 134.672 209.938H126.922C126.258 214.148 125.18 217.617 123.684 220.352H132.941ZM227.938 220.352C226.691 218.996 225.707 217.535 224.98 215.98C223.949 213.785 223.141 210.82 222.555 207.09H215.793V220.352H227.938Z" fill="#212529"/>
<path fill-rule="evenodd" clip-rule="evenodd" d="M16.7891 196.352C17.4766 190.852 19.0898 186.398 21.6289 182.992C25.0625 178.383 29.8945 176.051 36.125 175.988C39.0234 175.988 41.5703 176.43 43.7695 177.316C45.9648 178.199 47.8008 179.523 49.2734 181.289C51.2461 183.68 52.75 186.793 53.7891 190.633C54.2734 192.43 54.6484 194.332 54.9062 196.348L70.1211 196.352C69.4453 192.238 68.1133 188.437 66.1328 184.949C63.1836 179.773 59.1797 175.676 54.1172 172.668C49.0547 169.66 43.3203 168.121 36.9102 168.059C29.8594 168.109 23.6562 169.625 18.2969 172.605C12.9414 175.586 8.75 179.711 5.73047 184.98C3.75781 188.418 2.41797 192.207 1.70703 196.348L16.7891 196.352ZM92.1172 196.352C92.6875 190.727 94.0391 186.344 96.1719 183.199C99.0977 178.887 103.594 176.746 109.66 176.773C114.578 176.773 118.668 178.539 121.922 182.074C123.41 183.699 124.551 185.473 125.34 187.395C126.133 189.316 126.758 191.926 127.219 195.219H134.672V169.527H126.922L124.371 176.578C121.227 173.309 118.348 171.055 115.742 169.82C113.133 168.582 109.961 167.996 106.227 168.059C102.219 168.051 98.5859 168.699 95.3281 170.004C92.0664 171.309 89.0977 173.305 86.4141 175.992C83.1719 179.254 80.7148 183.102 79.0391 187.531C77.9922 190.309 77.2695 193.25 76.875 196.359L92.1172 196.352ZM168.246 196.352L173.312 181.094L178.664 196.352H191.781L182.434 168.941H168.211L158.449 196.352H168.246ZM252.613 196.352C252.531 196.324 252.449 196.297 252.367 196.273C249.609 195.461 245.656 194.586 240.508 193.648C234.891 192.652 231.086 191.535 229.086 190.301C227.09 189.07 226.152 187.242 226.277 184.82C226.32 182.09 227.414 179.945 229.555 178.383C231.691 176.816 234.625 176.02 238.348 175.988C241.789 175.992 244.891 176.598 247.645 177.805C250.398 179.012 252.766 180.793 254.734 183.152C255.988 184.707 256.965 186.332 257.652 188.02C258.344 189.711 258.875 191.848 259.246 194.434H265.91V169.527H260.031L257.09 175.402C254.012 172.652 251.066 170.73 248.246 169.637C245.426 168.539 242.062 168.016 238.152 168.059C230.812 168.121 225.062 169.926 220.891 173.469C216.719 177.016 214.598 181.91 214.52 188.156C214.52 190.375 214.859 192.461 215.535 194.41C215.77 195.082 216.039 195.73 216.352 196.352H252.613ZM292.027 196.352C292.715 190.852 294.328 186.398 296.867 182.992C300.301 178.383 305.133 176.051 311.363 175.988C314.262 175.988 316.809 176.43 319.008 177.316C321.203 178.199 323.039 179.523 324.512 181.289C326.484 183.68 327.988 186.793 329.027 190.633C329.512 192.43 329.887 194.332 330.145 196.348L345.359 196.352C344.684 192.238 343.355 188.437 341.371 184.949C338.422 179.773 334.418 175.676 329.355 172.668C324.293 169.66 318.559 168.121 312.148 168.059C305.098 168.109 298.895 169.625 293.535 172.605C288.18 175.586 283.988 179.711 280.969 184.98C278.996 188.418 277.656 192.207 276.945 196.348L292.027 196.352ZM169.902 61.25L164.805 0.683594H182.195L177.098 61.25C175.906 61.1953 174.707 61.1719 173.5 61.1719C172.297 61.1719 171.094 61.1953 169.902 61.25ZM242.082 99.5195L282.844 72.2227L293.723 84.1875L245.578 105.812C244.504 103.656 243.34 101.559 242.082 99.5195ZM224.363 79.2773L265.887 25.3828L278.355 34.8594L228.867 83.2422C227.418 81.8672 225.914 80.543 224.363 79.2773ZM201.609 66.2148L213.473 30.1094L227.828 31.8906L208.234 69.0312C206.078 67.9961 203.867 67.0586 201.609 66.2148ZM0 127.523C0 127.523 33.8281 130.773 116.609 131.871C121.254 104.652 144.957 83.9336 173.5 83.9336C202.043 83.9336 225.746 104.652 230.391 131.867C313.031 130.766 347 127.523 347 127.523V144.734H0V127.523ZM104.918 99.5195L64.1562 72.2227L53.2773 84.1875L101.422 105.812C102.496 103.656 103.66 101.559 104.918 99.5195ZM122.637 79.2773L81.1133 25.3828L68.6484 34.8594L118.133 83.2422C119.582 81.8672 121.086 80.543 122.637 79.2773ZM145.391 66.2148L133.527 30.1094L119.172 31.8906L138.766 69.0312C140.922 67.9961 143.133 67.0586 145.391 66.2148Z" fill="#212529"/>
</svg>
