<svg width="512" height="512" viewBox="0 0 512 512" fill="none" xmlns="http://www.w3.org/2000/svg">
<path d="M512 81.9079C512 81.9009 511.999 81.8949 511.999 81.8889V42.8617C511.999 21.9233 498.203 4.53744 478.449 0.58393C477.482 0.390953 476.499 0.292966 475.513 0.291966L37.0124 0.0319977H37.0044C36.1965 0.0319977 35.3896 0.0969897 34.5927 0.226974C14.2252 3.54357 0 20.7055 0 41.9578V145.718C0 176.182 24.747 200.967 55.1652 200.967C70.9863 200.967 85.2625 194.252 95.3313 183.53C105.4 194.252 119.676 200.967 135.498 200.967C151.319 200.967 165.596 194.252 175.664 183.531C185.733 194.253 200.009 200.967 215.829 200.967C231.652 200.967 245.928 194.252 255.997 183.529C266.065 194.252 280.343 200.967 296.164 200.967C311.986 200.967 326.264 194.251 336.332 183.527C346.4 194.251 360.679 200.967 376.501 200.967C392.322 200.967 406.599 194.252 416.667 183.529C426.735 194.252 441.013 200.967 456.834 200.967C487.251 200.967 511.998 176.182 511.998 145.718V81.9279C512 81.9209 512 81.9149 512 81.9079V81.9079ZM38.4573 30.0293L473.723 30.2873C478.863 31.8441 482.003 36.5545 482.003 42.8617V66.9108H29.9963V41.9578C29.9963 35.8906 33.2849 31.3122 38.4573 30.0293V30.0293ZM55.1652 170.972C41.2869 170.972 29.9963 159.643 29.9963 145.719V96.9061H80.3331V145.718C80.3331 159.643 69.0425 170.972 55.1652 170.972ZM135.498 170.972C121.62 170.972 110.329 159.643 110.329 145.719V96.9061H160.666L160.665 145.718C160.665 145.731 160.666 145.744 160.666 145.757C160.645 159.663 149.364 170.972 135.498 170.972V170.972ZM215.828 170.972C201.964 170.972 190.683 159.664 190.662 145.758C190.662 145.745 190.663 145.732 190.663 145.719C190.663 145.706 190.661 145.693 190.661 145.68L190.662 96.9061H240.997V145.699C240.997 145.706 240.996 145.712 240.996 145.718C240.997 159.643 229.707 170.972 215.828 170.972V170.972ZM296.164 170.972C282.285 170.972 270.995 159.643 270.995 145.719V96.9061H321.336V145.622C321.336 145.655 321.331 145.686 321.331 145.719C321.331 159.643 310.041 170.972 296.164 170.972ZM376.502 170.972C362.623 170.972 351.333 159.643 351.333 145.719V96.9061H401.67V145.718C401.67 159.643 390.379 170.972 376.502 170.972ZM456.836 170.972C442.957 170.972 431.667 159.643 431.667 145.719C431.667 145.712 431.666 145.706 431.666 145.7V96.9061H482.004V145.718C482.004 159.643 470.713 170.972 456.836 170.972Z" fill="black"/>
</svg>
