<?xml version="1.0"?>
<svg xmlns="http://www.w3.org/2000/svg" viewBox="0 0 64 64" width="512" height="512"><g id="shopping_online" data-name="shopping online"><path d="M61.851,56.475A1,1,0,0,0,61,56H36a1,1,0,0,0-1,1v1H29V57a1,1,0,0,0-1-1H3a1,1,0,0,0-.895,1.447l2,4A1,1,0,0,0,5,62H59a1,1,0,0,0,.9-.553l2-4A1,1,0,0,0,61.851,56.475ZM5.618,60l-1-2H27v1a1,1,0,0,0,1,1Zm52.764,0H36a1,1,0,0,0,1-1V58H59.382Z"/><path d="M36.656,29.247a1,1,0,0,0-.818.223l-10.852,9.2L26.28,40.2l9.938-8.428,3.608,6.248,1.732-1-4.207-7.287A1,1,0,0,0,36.656,29.247Z"/><rect x="44" y="24" width="2" height="4"/><rect x="46.464" y="27" width="4" height="2" transform="translate(-7.507 27.978) rotate(-29.995)"/><rect x="47.464" y="30" width="2" height="4" transform="translate(-3.48 57.973) rotate(-60.002)"/><path d="M3,14H4V51a3,3,0,0,0,3,3H28.268l.866,1.5a1,1,0,0,0,.607.466A1.035,1.035,0,0,0,30,56a1,1,0,0,0,.5-.134L33.732,54H57a3,3,0,0,0,3-3V14h1a1,1,0,0,0,.929-1.371l-4-10A1,1,0,0,0,57,2H7a1,1,0,0,0-.929.629l-4,10A1,1,0,0,0,3,14Zm7,0v4a2,2,0,0,1-4,0V14Zm45,7.858V45H34.629l11.132-3.985a2,2,0,0,0,1.059-2.883l-1.972-3.415a3.989,3.989,0,0,0-1.76-6.706,3.945,3.945,0,0,0-2.1.022l-1.971-3.414a2,2,0,0,0-3.026-.525L19.853,37.783a1,1,0,0,0-.219,1.263l.5.865-1.732,1a2,2,0,0,0-.731,2.733L18.453,45H9V21.858a3.976,3.976,0,0,0,2-1.24,3.947,3.947,0,0,0,6,0,3.947,3.947,0,0,0,6,0,3.947,3.947,0,0,0,6,0,3.947,3.947,0,0,0,6,0,3.947,3.947,0,0,0,6,0,3.947,3.947,0,0,0,6,0,3.947,3.947,0,0,0,6,0A3.976,3.976,0,0,0,55,21.858ZM19.4,42.644l1.732-1,2,3.464-1.732,1Zm6.547,3.339-4.166-7.214,15.5-13.15,7.8,13.512h0ZM43.78,32.867l-1.724-2.985a1.985,1.985,0,0,1,1.724,2.985ZM50,20a2,2,0,0,1-2-2V14h4v4A2,2,0,0,1,50,20Zm-4-2a2,2,0,0,1-4,0V14h4Zm-6,0a2,2,0,0,1-4,0V14h4Zm-6,0a2,2,0,0,1-4,0V14h4Zm-6,0a2,2,0,0,1-4,0V14h4Zm-6,0a2,2,0,0,1-4,0V14h4Zm-6,0a2,2,0,0,1-4,0V14h4ZM7,52a1,1,0,0,1-1-1V21.444a3.966,3.966,0,0,0,1,.414V46a1,1,0,0,0,1,1H19.608l.062.106a1.986,1.986,0,0,0,1.215.934,2.013,2.013,0,0,0,.52.068,1.986,1.986,0,0,0,1-.268L23.857,47h.369l2.887,5Zm23.366,1.634-3.4-5.89,1.914-.686L32.1,52.634ZM57,52H34.041l-2.886-5H56a1,1,0,0,0,1-1V21.858a3.966,3.966,0,0,0,1-.414V51A1,1,0,0,1,57,52Zm1-34a2,2,0,0,1-4,0V14h4ZM7.677,4H56.323l3.2,8H4.477Z"/></g></svg>
